# xmcd
#
# Track frame offsets:
#	150
#	8970
#	21425
#	33287
#	43107
#	53022
#	65262
#	78685
#	91110
#	102957
#	112295
#	124502
#	135657
#	146537
#	158285
#	169357
#
# Disc length: 2499 seconds
#
# Revision: 0
# Processed by: cddbd v1.5.1PL0 Copyright (c) Steve Scherf et al.
# Submitted via: dBpowerAMP V4.0
#
DISCID=d009c110
DTITLE=Various Artist - Kings Of soul
DYEAR=1900
DGENRE=
TTITLE0=Only sixteen
TTITLE1=You Send Me
TTITLE2=Everybody Loves To Cha Cha
TTITLE3=Stealaway
TTITLE4=LoverComeBack to Me
TTITLE5=Win Your Love
TTITLE6=Your Love Keeps Lifting Me
TTITLE7=Reet Pette
TTITLE8=You Got Me Walking
TTITLE9=I'll Be Satisfied
TTITLE10=Lonely Teardrops
TTITLE11=To Be Loved
TTITLE12=Rockin' Good Way
TTITLE13=Hotel Happiness
TTITLE14=It's Just A Matter Of Time
TTITLE15=Rainy Night In Georgia
EXTD=kings of soul
EXTT0=
EXTT1=
EXTT2=
EXTT3=
EXTT4=
EXTT5=
EXTT6=
EXTT7=
EXTT8=
EXTT9=
EXTT10=
EXTT11=
EXTT12=
EXTT13=
EXTT14=
EXTT15=
PLAYORDER=
